#format: frame checksums
#version: 2
#hash: MD5
#tb 0: 1001/30000
#media_type 0: video
#codec_id 0: rawvideo
#dimensions 0: 224x200
#sar 0: 1/1
#stream#, dts,        pts, duration,     size, hash
0,          0,          0,        1,    67200, 0819e6d715c9b4d94f05f63a7ca86199
0,          1,          1,        1,    67200, 9b9a4b01ed4c8a93687e45245b3092a3
0,          2,          2,        1,    67200, 3a076f5b8dba60552e84a391ee04d1c7
0,          3,          3,        1,    67200, 7aafc561f5b96e9d286bd8deb5687774
0,          4,          4,        1,    67200, daa43a89ab6b2761eedaa183e33a3465
0,          5,          5,        1,    67200, c14874409872357b11b65f35a283e058
0,          6,          6,        1,    67200, 37d2ef52a9c694b2596d58ed9ca0d90b
0,          7,          7,        1,    67200, c97bc860c006896d80f52ccc0759f472
0,          8,          8,        1,    67200, 5f8618114a723a017e39a1af695996f3
0,          9,          9,        1,    67200, ee8234fc5ccd41d05eb87e1510f9795e
